<svg width="10" height="10" viewBox="0 0 10 10" fill="none" xmlns="http://www.w3.org/2000/svg">
<g clip-path="url(#clip0)">
<path d="M5.70195 9.39894C5.70859 9.35802 5.71166 9.31661 5.71112 9.27518V2.22039L5.78267 2.37422C5.85384 2.52458 5.9507 2.66138 6.06887 2.77847L8.04721 4.75681C8.29593 5.01736 8.69605 5.06114 8.99524 4.86056C9.31406 4.62711 9.38328 4.17941 9.14983 3.86057C9.13096 3.83481 9.11039 3.81033 9.08825 3.78732L5.51078 0.209847C5.23151 -0.0697326 4.77849 -0.0699786 4.49892 0.209288C4.49874 0.209467 4.49854 0.209668 4.49836 0.209847L0.920884 3.78732C0.641864 4.06712 0.642489 4.52014 0.922293 4.79918C0.944316 4.82114 0.967749 4.84164 0.992434 4.86056C1.29162 5.06114 1.69174 5.01736 1.94046 4.75681L3.92238 2.78205C4.02747 2.67707 4.11559 2.55638 4.18354 2.4243L4.28013 2.20965V9.23581C4.26656 9.60131 4.52188 9.92199 4.88115 9.99065C5.2712 10.0539 5.63868 9.78899 5.70195 9.39894Z" fill="#387D68"/>
</g>
<defs>
<clipPath id="clip0">
<rect width="10" height="10" fill="white" transform="translate(10) rotate(90)"/>
</clipPath>
</defs>
</svg>
