<svg width="10" height="10" viewBox="0 0 10 10" fill="none" xmlns="http://www.w3.org/2000/svg">
<g clip-path="url(#clip0)">
<path d="M5.70195 0.601062C5.70859 0.641979 5.71166 0.683388 5.71112 0.72482V7.77961L5.78267 7.62578C5.85384 7.47542 5.9507 7.33862 6.06887 7.22153L8.04721 5.24319C8.29593 4.98264 8.69605 4.93886 8.99524 5.13944C9.31406 5.37289 9.38328 5.82059 9.14983 6.13943C9.13096 6.16519 9.11039 6.18967 9.08825 6.21268L5.51078 9.79015C5.23151 10.0697 4.77849 10.07 4.49892 9.79071C4.49874 9.79053 4.49854 9.79033 4.49836 9.79015L0.920884 6.21268C0.641864 5.93288 0.642489 5.47986 0.922293 5.20082C0.944316 5.17886 0.967749 5.15836 0.992434 5.13944C1.29162 4.93886 1.69174 4.98264 1.94046 5.24319L3.92238 7.21795C4.02747 7.32293 4.11559 7.44362 4.18354 7.5757L4.28013 7.79035V0.764194C4.26656 0.398688 4.52188 0.0780125 4.88115 0.00934696C5.2712 -0.0539064 5.63868 0.211005 5.70195 0.601062Z" fill="#E47359"/>
</g>
<defs>
<clipPath id="clip0">
<rect width="10" height="10" fill="white" transform="matrix(0 -1 -1 0 10 10)"/>
</clipPath>
</defs>
</svg>
