<svg width="26" height="26" viewBox="0 0 26 26" fill="none" xmlns="http://www.w3.org/2000/svg">
<path d="M19.427 11.8511C19.2953 11.5603 19.0061 11.375 18.6876 11.375H15.4376V0.8125C15.4376 0.364 15.0736 0 14.6251 0H11.3751C10.9266 0 10.5626 0.364 10.5626 0.8125V11.375H7.3126C6.9941 11.375 6.70485 11.5619 6.57322 11.8511C6.43997 12.142 6.49197 12.4816 6.7016 12.7221L12.3891 19.2221C12.5435 19.3993 12.7661 19.5 13.0001 19.5C13.2341 19.5 13.4567 19.3976 13.6111 19.2221L19.2986 12.7221C19.5098 12.4832 19.5586 12.142 19.427 11.8511Z" fill="#E47359"/>
<path d="M21.9375 17.875V22.75H4.0625V17.875H0.8125V24.375C0.8125 25.2736 1.5405 26 2.4375 26H23.5625C24.4611 26 25.1875 25.2736 25.1875 24.375V17.875H21.9375Z" fill="#E47359"/>
</svg>
