<svg width="5" height="8" viewBox="0 0 5 8" fill="none" xmlns="http://www.w3.org/2000/svg">
<path d="M0.363685 2.61815H4.43635C4.51514 2.61815 4.58334 2.58938 4.64089 2.5318C4.69841 2.47423 4.72729 2.40606 4.72729 2.32727C4.72729 2.24848 4.69843 2.18034 4.64089 2.12269L2.60455 0.0863526C2.54702 0.0288479 2.47886 0 2.40002 0C2.32119 0 2.25303 0.0288479 2.19545 0.0863526L0.159107 2.12269C0.101522 2.18028 0.0727539 2.24848 0.0727539 2.32727C0.0727539 2.40604 0.101522 2.47423 0.159107 2.5318C0.216755 2.58938 0.28491 2.61815 0.363685 2.61815Z" fill="#979797"/>
<path d="M4.43635 5.38187H0.363685C0.284846 5.38187 0.216691 5.41065 0.159107 5.46817C0.101522 5.52576 0.0727539 5.59391 0.0727539 5.6727C0.0727539 5.75149 0.101522 5.8197 0.159107 5.87725L2.19545 7.91357C2.25309 7.97115 2.32125 7.99999 2.40002 7.99999C2.4788 7.99999 2.54702 7.97115 2.60455 7.91357L4.64089 5.87723C4.69841 5.8197 4.72729 5.75149 4.72729 5.67269C4.72729 5.59391 4.69843 5.52576 4.64089 5.46816C4.58336 5.41059 4.51514 5.38187 4.43635 5.38187Z" fill="#979797"/>
</svg>
