<svg width="14" height="14" viewBox="0 0 14 14" fill="none" xmlns="http://www.w3.org/2000/svg">
<g clip-path="url(#clip0)">
<path d="M10.75 7.99987H10.25C10.1769 7.99987 10.117 8.02327 10.0704 8.07028C10.0234 8.11702 9.99998 8.17691 9.99998 8.24987V10.7498C9.99998 11.0936 9.87766 11.3878 9.63289 11.6326C9.38812 11.8774 9.0938 11.9997 8.75003 11.9997H2.24995C1.90621 11.9997 1.61191 11.8774 1.36709 11.6326C1.12232 11.3879 0.999951 11.0936 0.999951 10.7498V4.24984C0.999951 3.9061 1.12229 3.61191 1.36709 3.36712C1.61191 3.12229 1.90621 2.99995 2.24995 2.99995H7.74989C7.82292 2.99995 7.88285 2.97645 7.92967 2.92963C7.97649 2.88275 7.99988 2.82291 7.99988 2.74993V2.24986C7.99988 2.17702 7.97649 2.11706 7.92967 2.07027C7.88285 2.0234 7.82292 2 7.74989 2H2.24995C1.63022 2 1.10024 2.22006 0.660067 2.66015C0.220059 3.10021 0 3.63019 0 4.24992V10.75C0 11.3697 0.220059 11.8997 0.660094 12.3396C1.10027 12.7798 1.63025 12.9999 2.24998 12.9999H8.75003C9.36974 12.9999 9.89977 12.7798 10.3399 12.3396C10.78 11.8997 11.0001 11.3697 11.0001 10.75V8.25006C11.0001 8.17702 10.9767 8.1171 10.9297 8.07028C10.8828 8.02327 10.8229 7.99987 10.75 7.99987Z" fill="#464646"/>
<path d="M13.8514 1.14848C13.7524 1.04951 13.6351 1.00006 13.4998 1.00006H9.49984C9.36445 1.00006 9.24719 1.04951 9.1483 1.14848C9.04933 1.2474 8.99977 1.3646 8.99977 1.50002C8.99977 1.63545 9.04933 1.75267 9.1483 1.85165L10.5232 3.22662L5.42959 8.32039C5.37744 8.37247 5.35144 8.43239 5.35144 8.49998C5.35144 8.56782 5.37752 8.62772 5.42959 8.67979L6.32022 9.57031C6.37229 9.62239 6.43222 9.64835 6.49992 9.64835C6.56761 9.64835 6.62757 9.62241 6.67961 9.57031L11.7733 4.47662L13.1483 5.85159C13.2472 5.95056 13.3645 6.00006 13.4999 6.00006C13.6353 6.00006 13.7525 5.95056 13.8515 5.85159C13.9505 5.75264 13.9999 5.63547 13.9999 5.50005V1.50002C13.9999 1.36452 13.9503 1.2474 13.8514 1.14848Z" fill="#464646"/>
</g>
<defs>
<clipPath id="clip0">
<rect width="14" height="14" fill="white"/>
</clipPath>
</defs>
</svg>
