<svg width="12" height="12" viewBox="0 0 12 12" fill="none" xmlns="http://www.w3.org/2000/svg">
<path d="M6 0C2.69166 0 0 2.69166 0 6C0 9.30834 2.69166 12 6 12C9.30834 12 12 9.30834 12 6C12 2.69166 9.30834 0 6 0ZM7.00001 9.75C7.00001 9.88819 6.88819 10 6.75 10H5.25C5.11181 10 4.99999 9.88819 4.99999 9.75V6H4.74998C4.6118 6 4.49998 5.88818 4.49998 5.74999V4.74998C4.49998 4.6118 4.6118 4.49998 4.74998 4.49998H6.75C6.88819 4.49998 7.00001 4.6118 7.00001 4.74998V9.75ZM6 4.00001C5.44849 4.00001 4.99999 3.55153 4.99999 3C4.99999 2.44847 5.44849 1.99999 6 1.99999C6.55151 1.99999 7.00001 2.44847 7.00001 3C7.00001 3.55153 6.55151 4.00001 6 4.00001Z" fill="#ACACAC"/>
</svg>
